<?xml version="1.0" encoding="UTF-8" standalone="no"?>
<!-- Created with Inkscape (http://www.inkscape.org/) -->

<svg
   width="973.42584mm"
   height="997.61151mm"
   viewBox="0 0 973.42584 997.61151"
   version="1.1"
   id="svg1"
   xml:space="preserve"
   xmlns="http://www.w3.org/2000/svg"
   xmlns:svg="http://www.w3.org/2000/svg"><defs
     id="defs1" /><g
     id="layer1"
     transform="translate(342.33738,404.35804)"><g
       id="g3"
       transform="matrix(0.26458333,0,0,0.26458333,-342.33737,-404.358)"><path
         d="M 1051.55,0.12 H 2628.3 c 578.15,0 1051.17,472.31 1051.17,1050.45 v 507 c -518.3,233 -1041.18,1383.68 -1803.27,1133.64 -62.77,44.61 -207.44,228.42 -217.63,367.89 -263.89,-35.14 -568.12,-337.56 -531.61,-663.68 -439.16,-317.7 -76.48,-904.19 271.83,-1140.24 746.5,-505.94 1782.86,-70.81 1206.39,290.93 C 2254.65,1766 1505.06,1911.33 1583,1371.33 c -205.63,59.32 -337.25,442.73 -89.68,642.49 -229.34,225.33 -185.25,639.51 59.9,775.5 C 1801.15,2147 2664.08,2230.9 3012.77,1464.07 3275.08,887.21 2886.18,230 2108.62,331 1521.76,407.21 971.71,902.22 696.62,1489.32 417.5,2085 459,2882.6 1032.18,3284.6 c 674.47,473.08 1392.56,35 1827.48,-537.49 C 3116,2409.66 3340,2035.78 3679.47,1819.92 v 898.81 c 0,578.14 -473,1051.89 -1051.17,1051.89 H 1051.55 C 473.4,3770.62 0.38,3297.59 0.38,2719.45 V 1051.29 C 0.38,473.14 473.4,0.12 1051.55,0.12 Z"
         transform="translate(-0.38,-0.12)"
         fill="#ef7f1a"
         fill-rule="evenodd"
         id="path1" /></g></g></svg>
